<?xml version="1.0" encoding="UTF-8"?>
<svg id="Layer_2" data-name="Layer 2" xmlns="http://www.w3.org/2000/svg" viewBox="0 0 36 38.92">
  <defs>
    <style>
      .cls-1 {
        stroke-width: 0px;
      }
    </style>
  </defs>
  <polygon class="cls-1" points="9.9 21.6 9.9 5.4 26.1 13.5 9.9 21.6"/>
  <path class="cls-1" d="M32.4,0H0v36h36V0h-3.6ZM15.98,33.98c-.71.24-2.03.54-3.26.54-1.85,0-3.12-.46-3.97-1.27-.89-.84-1.35-2.06-1.34-3.41.01-3.28,2.46-4.95,5.52-4.95,1.27,0,2.24.23,2.74.46l-.51,2.02c-.53-.22-1.17-.4-2.25-.4-1.56,0-2.85.82-2.85,2.74,0,1.76,1.14,2.78,2.69,2.78.35,0,.67-.03.79-.08v-1.62h-1.26v-1.96h3.7v5.17ZM20.44,34.42h-2.53v-9.44h2.53v9.44ZM28.59,27.05h-3.53v1.74h3.32v2.04h-3.32v3.59h-2.53v-9.44h6.06v2.07ZM32.4,23.4H3.6V3.6h28.8v19.8Z"/>
</svg>