<?xml version="1.0" encoding="UTF-8"?>
<svg id="Layer_1" data-name="Layer 1" xmlns="http://www.w3.org/2000/svg" viewBox="0 0 36 36">
  <defs>
    <style>
      .cls-1 {
        stroke-width: 0px;
      }
    </style>
  </defs>
  <path class="cls-1" d="M32.4,3.6v28.8H3.6V3.6h28.8M36,0H0v36h36V0h0Z"/>
  <g>
    <polygon class="cls-1" points="3.36 34.2 11.08 22.62 16.48 28.03 23.3 17.8 32.87 34.2 3.36 34.2"/>
    <path class="cls-1" d="M23.2,21.2l6.54,11.2H6.73l4.63-6.95,2.29,2.29,3.11,3.11,2.44-3.65,4-6M23.4,14.4l-7.2,10.8-5.4-5.4L0,36h36l-12.6-21.6h0Z"/>
  </g>
  <g>
    <circle class="cls-1" cx="11.7" cy="11.7" r="2.7"/>
    <path class="cls-1" d="M11.7,10.8c.5,0,.9.4.9.9s-.4.9-.9.9-.9-.4-.9-.9.4-.9.9-.9M11.7,7.2c-2.49,0-4.5,2.01-4.5,4.5s2.01,4.5,4.5,4.5,4.5-2.01,4.5-4.5-2.01-4.5-4.5-4.5h0Z"/>
  </g>
</svg>