<?xml version="1.0" encoding="utf-8"?>
<svg xmlns="http://www.w3.org/2000/svg" viewBox="-6 -4 244 324" xmlns:bx="https://boxy-svg.com" width="244px" height="324px"><defs><linearGradient id="paperShade" x1="0" y1="0" x2="1" y2="1"><stop offset="0" stop-color="#ffffff"/><stop offset="0.55" stop-color="#ffffff"/><stop offset="0.56" stop-color="#ececec"/><stop offset="1" stop-color="#d9d9d9"/></linearGradient><linearGradient id="metal" x1="0" y1="0" x2="0" y2="1"><stop offset="0" stop-color="#f6f8fb"/><stop offset="0.55" stop-color="#cfd6df"/><stop offset="1" stop-color="#9aa7b6"/></linearGradient><linearGradient id="metalShade" x1="0" y1="0" x2="1" y2="0"><stop offset="0" stop-color="#ffffff" stop-opacity="0.0"/><stop offset="1" stop-color="#1b2d3a" stop-opacity="0.18"/></linearGradient><bx:export><bx:file format="svg"/></bx:export></defs><g id="clipboard" transform="matrix(1, 0, 0, 1, -140.000017, -99.382005)" style="transform-origin: -230.986px 13.0888px;"><rect x="140" y="154" width="232" height="260" rx="12" stroke="#0f2b3b" style="fill: rgb(237, 166, 33); stroke-width: 6px;"/><rect x="145" y="159" width="222" height="250" rx="12" style="opacity: 0.25; stroke: rgb(114, 79, 16); fill: none; stroke-width: 8px;" ry="12"/><rect x="162" y="176" width="188" height="212" rx="2" fill="#ffffff" stroke="#0f2b3b" style="stroke-width: 6px;"/><path d="M 162 310.449 L 267.75 237.113 L 350 237.113 L 350 391.934 L 162 391.934 L 162 310.449 Z" fill="url(#paperShade)" opacity="0.95" style=""/><rect x="162" y="176" width="188" height="215.934" rx="2" stroke="#0f2b3b" style="fill: none; stroke-width: 6px;"/><g id="clip"><rect x="206" y="131.382" width="100" height="44" fill="url(#metal)" stroke="#0f2b3b" style="transform-origin: 256px 0.382005px; stroke-width: 6px;"/><path d="M 262.632 118 C 262.632 121.663 259.663 124.632 256 124.632 C 252.337 124.632 249.368 121.663 249.368 118 C 249.368 114.337 252.337 111.368 256 111.368 C 259.663 111.368 262.632 114.337 262.632 118 Z M 272 131.382 L 272 114.151 L 256 99.382 L 240 114.151 L 240 131.382 L 272 131.382 Z" fill="url(#metal)" stroke="#0f2b3b" style="transform-origin: 256px 2.382px; stroke-width: 6px;"/><rect x="254" y="134" width="52" height="44" rx="3" fill="url(#metalShade)"/></g></g><line style="fill: none; stroke: rgb(13, 42, 59); stroke-linecap: round; transform-origin: -370.986px -86.293px; stroke-width: 12px;" x1="88" y1="140.618" x2="88" y2="188.618" id="object-2"/><line style="fill: none; stroke: rgb(13, 42, 59); stroke-linecap: round; transform-origin: -370.986px -86.293px; stroke-width: 12px;" x1="144" y1="140.618" x2="144.001" y2="188.618" id="object-1"/><path style="fill: none; stroke-linecap: round; stroke: rgb(13, 42, 59); transform-origin: -370.986px -86.293px; stroke-width: 12px;" d="M 80 212.618 C 80 212.618 92 232.618 116 232.618 C 140 232.618 152 212.618 152 212.618" id="object-0"/></svg>