<?xml version="1.0" encoding="UTF-8"?>
<svg id="Layer_1" data-name="Layer 1" xmlns="http://www.w3.org/2000/svg" viewBox="0 0 36 36">
  <defs>
    <style>
      .cls-1 {
        stroke-width: 0px;
      }

      .cls-2 {
        fill: none;
        stroke: #000;
        stroke-linecap: round;
        stroke-linejoin: round;
        stroke-width: 2.7px;
      }
    </style>
  </defs>
  <path class="cls-1" d="M32.4,0H0v36h36V0h-3.6ZM7.99,34.57c-1.14,0-2.24-.3-2.78-.57l.48-2.09c.57.29,1.5.58,2.45.58.87,0,1.29-.3,1.29-.78,0-.45-.42-.72-1.49-1.08-1.59-.56-2.65-1.44-2.65-2.85,0-1.67,1.41-2.95,3.79-2.95,1.13,0,1.93.21,2.55.48l-.53,2.02c-.41-.18-1.11-.45-2.05-.45-.77,0-1.19.28-1.19.7,0,.48.5.67,1.69,1.12,1.7.62,2.46,1.53,2.46,2.85,0,1.63-1.27,3.02-4.02,3.02ZM18.66,34.42h-2.99l-3-9.44h2.78l1,3.71c.3,1.06.56,2.09.78,3.3h.03c.23-1.15.5-2.24.77-3.26l1.03-3.75h2.69l-3.09,9.44ZM30.79,33.98c-.71.24-2.03.54-3.26.54-1.85,0-3.12-.46-3.97-1.27-.89-.84-1.35-2.06-1.35-3.41.01-3.28,2.46-4.95,5.52-4.95,1.27,0,2.24.23,2.74.46l-.51,2.02c-.53-.22-1.17-.4-2.25-.4-1.56,0-2.85.82-2.85,2.74,0,1.76,1.14,2.78,2.69,2.78.35,0,.67-.03.79-.08v-1.62h-1.26v-1.96h3.7v5.17ZM32.4,23.4H3.6V3.6h28.8v19.8Z"/>
  <line class="cls-2" x1="16.2" y1="20.7" x2="19.8" y2="6.3"/>
  <polyline class="cls-2" points="22.77 18.9 29.07 13.5 22.77 8.1"/>
  <polyline class="cls-2" points="13.23 18.9 6.93 13.5 13.23 8.1"/>
</svg>