<?xml version="1.0" encoding="UTF-8"?>
<svg id="Layer_1" data-name="Layer 1" xmlns="http://www.w3.org/2000/svg" viewBox="0 0 33.31 26.31">
  <defs>
    <style>
      .cls-1 {
        stroke-width: 0px;
      }
    </style>
  </defs>
  <path class="cls-1" d="M22.61,1.67l-2.15,3.64h-6.49v21h-5.32V5.31H2.3L0,1.52C0,.74,1.52,0,2.3,0h18.16c.78,0,2.15.89,2.15,1.67Z"/>
  <path class="cls-1" d="M33.31,25.55c0,.42-.33.76-.75.76h-4.53c-2.64-.05-5.3-2.66-5.3-5.32v-5.18h-4.48v-5.32h4.48v-5.18h5.32v5.18h4.48v5.32h-4.56s-.27,4.03.46,4.77c.8.79,2.94.57,4.02.49.43-.03.79.3.79.73l.07,3.75Z"/>
</svg>